<svg xmlns="http://www.w3.org/2000/svg" viewBox="0 0 100 100">
  <defs>
    <linearGradient id="usdtGrad" x1="0%" y1="0%" x2="100%" y2="100%">
      <stop offset="0%" style="stop-color:#26A17B;stop-opacity:1" />
      <stop offset="100%" style="stop-color:#1E8F6E;stop-opacity:1" />
    </linearGradient>
  </defs>
  <circle cx="50" cy="50" r="48" fill="url(#usdtGrad)"/>
  <circle cx="50" cy="50" r="44" fill="none" stroke="rgba(255,255,255,0.2)" stroke-width="1"/>
  <!-- USDT Logo -->
  <path fill="#fff" d="M50 20c-2.5 0-4.5 1-4.5 2.3v7.4c-8.5.8-15 3.5-15 6.8v3.5c0 3.3 6.5 6 15 6.8v23.9c0 1.3 2 2.3 4.5 2.3s4.5-1 4.5-2.3V46.8c8.5-.8 15-3.5 15-6.8v-3.5c0-3.3-6.5-6-15-6.8v-7.4c0-1.3-2-2.3-4.5-2.3zm0 12.5c10 0 18 2.5 18 5.5s-8 5.5-18 5.5-18-2.5-18-5.5 8-5.5 18-5.5z"/>
  <!-- BEP20 Badge -->
  <rect x="60" y="60" width="32" height="16" rx="8" fill="#F0B90B"/>
  <text x="76" y="71" text-anchor="middle" fill="#000" font-size="8" font-weight="bold" font-family="Arial">BEP20</text>
</svg>
